<?xml version="1.0" encoding="utf-8"?>
<!-- Generator: Adobe Illustrator 16.0.0, SVG Export Plug-In . SVG Version: 6.00 Build 0)  -->
<!DOCTYPE svg PUBLIC "-//W3C//DTD SVG 1.1//EN" "http://www.w3.org/Graphics/SVG/1.1/DTD/svg11.dtd">
<svg version="1.1" id="Layer_1" xmlns="http://www.w3.org/2000/svg" xmlns:xlink="http://www.w3.org/1999/xlink" x="0px" y="0px"
	 width="160px" height="160px" viewBox="0 0 160 160" enable-background="new 0 0 160 160" xml:space="preserve">
<g>
	<path fill="#CCA332" d="M68.254,147.045c-2.251-0.566-4.446-1.105-6.628-1.672c-0.511-0.126-0.867,0.05-1.21,0.371
		c-4.153,3.915-9.285,4.09-14.521,3.755c-4.607-0.301-8.852-2.077-13.208-3.412c-0.44-0.133-1.125-0.147-1.104-0.77
		c0.021-0.545,0.699-0.518,1.084-0.587c5.789-1.049,11.516-2.545,17.473-2.518c0.958,0.008,1.888,0.49,3.125,0.168
		c-3.014-1.615-5.88-2.965-8.502-4.733c-0.378-0.252-0.734-0.188-1.126-0.028c-6.075,2.553-11.879,1.343-17.5-1.433
		c-3.392-1.671-6.384-4-9.397-6.278c-0.434-0.329-1.034-0.658-0.811-1.273c0.237-0.65,0.943-0.384,1.454-0.398
		c3.636-0.084,7.201,0.56,10.788,1.014c2.58,0.322,5.182,0.49,7.572,1.734c-2-1.979-3.908-3.992-5.727-6.097
		c-0.377-0.434-0.853-0.686-1.44-0.63c-8.257,0.783-13.718-3.853-18.591-9.606c-1.314-1.559-2.545-3.181-3.824-4.769
		c-0.308-0.385-0.762-0.775-0.447-1.3c0.321-0.531,0.881-0.301,1.356-0.168c5.104,1.44,10.292,2.656,14.738,5.789
		c0.063,0.042,0.182,0.007,0.42,0.007c-1.168-2.342-2.301-4.628-3.461-6.908c-0.252-0.489-0.763-0.559-1.266-0.671
		c-4.923-1.111-8.593-3.999-11.208-8.222c-2.328-3.762-3.999-7.873-6.048-11.781C0.133,86.419,0,86.195,0,85.971v-0.007
		c0-0.146,0.057-0.286,0.203-0.426c0.321-0.294,0.65-0.099,0.943,0.091c4.545,2.922,9.3,5.551,13.194,9.306
		c0.042-0.503-1.07-6.949-1.336-7.327c-0.161-0.23-0.392-0.462-0.636-0.588c-5.733-2.796-8.125-7.894-9.411-13.718
		c-0.538-2.468-0.993-4.95-1.469-7.432c-0.091-0.476-0.272-1.099,0.175-1.398c0.531-0.357,1,0.125,1.447,0.447
		c3.608,2.545,6.3,5.873,8.335,9.761c0.202,0.392,0.328,0.839,0.979,1.209c-0.126-2.538,0.412-4.887,0.615-7.271
		c0.056-0.615-0.252-1.021-0.776-1.328c-3.559-2.126-4.824-5.594-5.132-9.418c-0.336-4.202,0.112-8.425,0.266-12.642
		c0.021-0.545,0.021-1.202,0.644-1.377c0.671-0.195,0.916,0.469,1.182,0.916c2.293,3.811,5.006,7.404,5.789,11.977
		c0.119-0.021,0.237-0.034,0.363-0.056c0.644-1.95,1.279-3.908,1.958-5.845c0.195-0.56-0.042-0.931-0.294-1.378
		c-1.111-1.992-2.167-3.979-2.552-6.3c-0.511-3.146,0.266-6.11,1.063-9.068c0.615-2.293,1.482-4.523,2.252-6.774
		c0.188-0.553,0.363-1.35,0.957-1.371c0.657-0.027,0.532,0.847,0.692,1.314c1.154,3.427,2.524,6.804,2.531,10.502
		c0.007,0.979,0.007,1.951,0.007,3.111c1.35-2.021,2.608-3.895,3.866-5.775c0.147-0.224,0.183-0.44-0.007-0.671
		c-2.146-2.615-1.468-5.601-1.063-8.53c0.476-3.377,2.426-6.033,4.391-8.662c0.867-1.146,1.79-2.252,2.728-3.35
		c0.3-0.356,0.607-0.895,1.202-0.65c0.518,0.21,0.385,0.741,0.427,1.182c0.377,4.063,0.503,8.104-0.889,12.013
		c0.531,0.335,0.714-0.07,0.938-0.28c0.727-0.678,1.363-1.476,2.153-2.056c1.419-1.042,1.825-2.182,1.573-4.034
		c-0.476-3.601,1.629-6.362,3.943-8.803c2.049-2.167,4.495-3.908,7.075-5.418c0.489-0.287,1.049-0.812,1.622-0.364
		c0.539,0.427,0.084,1.021-0.042,1.524c-0.72,2.825-1.433,5.649-2.769,8.32c2.069-1.321,4.559-1.965,5.363-4.846
		c0.587-2.118,2.523-3.265,4.468-4.118c2.691-1.174,5.537-1.888,8.354-2.663c0.482-0.126,1.035-0.252,1.392,0.195
		c0.363,0.469,0.098,1.007-0.195,1.385c-3.434,4.46-6.762,9.019-13.089,9.62c-2.014,0.196-3.237,1.895-5.041,3.266
		c2.72,0.118,5.041-0.126,7.334,0.314c2.35,0.447,4.601,1.175,6.796,2.098c0.398,0.168,0.874,0.37,0.783,0.943
		c-0.077,0.531-0.518,0.721-0.985,0.728c-5.454,0.077-10.796,1.65-16.291,1.217c-0.294-0.021-0.637,0.069-0.881-0.049
		c-2.937-1.378-4.733,0.433-6.769,2.481c1.14-0.153,2.021-0.244,2.902-0.405c2.747-0.489,5.509-0.679,8.285-0.224
		c0.559,0.098,1.314,0.111,1.412,0.853c0.098,0.748-0.608,0.951-1.146,1.175c-4.301,1.77-8.307,4.286-12.936,5.229
		c-1.069,0.217-2.118,0.588-3.223,0.476c-1.895-0.188-3.237,0.588-4.209,2.195c-0.553,0.916-1.23,1.77-1.874,2.679
		c0.644,0.342,0.944-0.112,1.286-0.322c2.832-1.727,5.979-2.636,9.146-3.475c0.237-0.063,0.496-0.091,0.734-0.07
		c0.608,0.063,1.468-0.314,1.755,0.385c0.314,0.783-0.518,1.203-1.049,1.608c-3.195,2.433-6.041,5.307-9.334,7.628
		c-2.202,1.552-4.475,2.957-7.062,3.775c-0.748,0.237-1.272,0.637-1.595,1.405c-0.685,1.637-1.496,3.224-1.93,5.014
		c2.188-2.279,4.79-3.951,7.468-5.51c1.377-0.797,2.775-1.553,4.188-2.272c0.378-0.196,0.909-0.321,1.238,0.098
		c0.293,0.378-0.008,0.783-0.245,1.084c-3.153,4.027-5.67,8.522-9.026,12.396c-1.699,1.972-3.622,3.678-5.873,4.985
		c-0.504,0.293-0.951,0.629-1,1.209c-0.195,2.454-0.943,4.859-0.566,7.782c1.679-5.174,5.349-8.391,8.824-11.753
		c0.496-0.482,1.063-1.398,1.831-0.909c0.707,0.447,0.119,1.328-0.083,1.923c-1.763,5.146-2.748,10.593-5.748,15.263
		c-1.258,1.965-2.614,3.867-4.223,5.573c-0.385,0.412-0.755,0.783-0.644,1.412c0.427,2.51,0.839,5.026,1.392,7.564
		c0.587-5.292,3.405-9.571,6.139-13.871c0.392-0.623,0.755-1.686,1.699-1.336c0.783,0.287,0.594,1.286,0.538,2.014
		c-0.419,5.14-0.496,10.307-1.482,15.375c-0.496,2.545-1.481,4.95-3.313,6.888c-0.476,0.496-0.546,0.957-0.343,1.607
		c0.853,2.762,2.321,5.195,3.811,7.621c-1.084-5.789,0.727-11.103,2.475-16.424c0.147-0.447,0.28-1.063,0.931-1
		c0.559,0.057,0.587,0.581,0.629,1.035c0.321,3.314,1.272,6.502,1.992,9.739c1.063,4.817,1.672,9.579-0.209,14.333
		c-0.189,0.469-0.315,0.958,0.063,1.406c1.294,1.552,2.398,3.278,4.195,4.803c-0.721-4.293-0.58-8.376-0.546-12.445
		c0-0.741,0.077-1.489,0.225-2.216c0.153-0.734,0.594-0.756,0.992-0.168c0.336,0.489,0.595,1.027,0.854,1.559
		c2.006,4.153,4.908,7.824,6.334,12.285c0.797,2.503,1.175,5.02,1,7.614c-0.063,0.908,0.245,1.496,0.979,1.992
		c1.392,0.937,2.686,2.014,4.195,2.727c0.476-0.496,0.042-0.797-0.126-1.098c-1.839-3.349-2.797-6.984-3.397-10.726
		c-0.084-0.51-0.273-1.216,0.244-1.517c0.602-0.356,0.951,0.314,1.308,0.691c3.377,3.573,7.132,6.782,10.131,10.712
		c1.259,1.636,2.294,3.356,2.545,5.461c0.147,1.258,0.763,2.041,2.091,2.328c1.378,0.301,2.72,0.783,4.202,0.923
		c-1.363-1.608-2.727-3.209-4.076-4.831c-1.16-1.385-1.979-2.965-2.503-4.692c-0.104-0.335-0.245-0.678,0.069-0.972
		c0.315-0.286,0.699-0.182,0.986-0.027c3.531,1.937,7.517,2.846,11.005,4.894c2.412,1.413,4.098,3.44,5.111,6.006
		c0.447,1.126,1.076,1.657,2.328,1.588c1.587-0.091,3.182-0.042,4.775-0.021c0.783,0.014,1.175-0.224,1.496-1.049
		c1.252-3.229,3.496-5.677,6.601-7.181c3.027-1.468,6.174-2.705,9.271-4.055c0.426-0.182,0.874-0.363,1.258-0.035
		c0.406,0.356,0.189,0.818,0.063,1.252c-0.916,3.09-3.042,5.418-4.992,7.852c-0.245,0.301-0.524,0.58-1.063,1.167
		c2.069-0.321,3.705-0.839,5.25-1.622c0.225-0.111,0.42-0.468,0.455-0.733c0.524-3.811,2.824-6.614,5.327-9.265
		c2.524-2.663,5.182-5.209,7.789-7.803c0.308-0.308,0.608-0.762,1.119-0.531c0.517,0.23,0.356,0.79,0.321,1.195
		c-0.314,3.56-1.434,6.873-2.999,10.062c-0.28,0.56-0.574,1.111-0.756,1.776c1.874-0.931,3.622-2.007,5.104-3.454
		c0.602-0.595,0.496-1.489,0.518-2.272c0.069-2.237,0.202-4.454,0.755-6.636c0.762-3.021,2.811-5.342,4.202-8.02
		c0.888-1.713,1.79-3.433,2.72-5.125c0.195-0.363,0.314-0.985,0.853-0.901c0.532,0.084,0.511,0.706,0.532,1.104
		c0.133,2.279,0.314,4.565,0.266,6.845c-0.05,2.168-0.189,4.342-0.56,6.544c1.475-1.314,2.762-2.775,3.887-4.376
		c0.336-0.482,0.231-1.049,0.021-1.581c-1.461-3.698-1.244-7.474-0.56-11.284c0.728-4.041,2.042-7.964,2.538-12.054
		c0.042-0.363,0.104-0.721,0.531-0.79c0.531-0.077,0.825,0.308,1.042,0.699c0.853,1.538,1.175,3.265,1.587,4.943
		c0.847,3.433,1.168,6.914,0.622,10.844c1.42-1.775,1.951-3.58,2.79-5.209c0.93-1.79,1.021-3.244-0.259-5.11
		c-1.93-2.804-2.468-6.181-2.797-9.593c-0.356-3.699-0.524-7.412-0.839-11.117c-0.027-0.343-0.007-0.692,0-1.042
		c0.015-0.496-0.035-1.091,0.531-1.279c0.588-0.189,0.916,0.342,1.161,0.741c2.321,3.804,4.999,7.425,6.034,11.893
		c0.069,0.308,0.098,0.692,0.649,0.979c0.378-2.328,0.951-4.552,0.776-6.866c-0.021-0.308-0.301-0.622-0.531-0.867
		c-4.279-4.671-6.544-10.355-8.341-16.291c-0.524-1.755-1.057-3.517-1.588-5.271c-0.104-0.343-0.195-0.714,0.141-0.951
		c0.356-0.252,0.685-0.007,0.923,0.245c2.643,2.824,5.754,5.208,7.964,8.438c0.496,0.728,0.866,1.546,1.391,2.503
		c0.392-2.391-0.314-4.502-0.713-6.635c-0.091-0.489-0.671-0.699-1.084-0.979c-3.656-2.434-6.621-5.51-8.761-9.376
		c-1.251-2.266-2.622-4.447-4.453-6.307c-0.175-0.175-0.35-0.364-0.469-0.573c-0.259-0.455-0.881-0.909-0.496-1.44
		c0.468-0.657,1.098-0.126,1.601,0.111c3.384,1.573,6.698,3.266,9.383,5.957c0.196,0.196,0.455,0.343,0.728,0.546
		c0.119-2.091-1.755-5.174-3.461-5.908c-3.985-1.699-7.313-4.37-10.6-7.111c-1.797-1.488-3.545-3.034-5.32-4.544
		c-0.343-0.294-0.798-0.56-0.56-1.077c0.195-0.44,0.699-0.328,1.069-0.301c3.308,0.287,6.349,1.462,9.355,2.79
		c0.475,0.21,0.859,0.671,1.74,0.587c-1.769-1.985-2.503-4.475-5.942-4.51c-3.937-0.034-7.537-1.95-11.104-3.594
		c-1.58-0.727-3.16-1.439-4.74-2.167c-0.454-0.21-0.985-0.405-0.888-1.028c0.077-0.531,0.58-0.629,1.014-0.727
		c2.817-0.615,5.629-0.301,8.439,0.091c0.775,0.112,1.552,0.245,2.349,0.378c-1.14-2.098-3.069-3.056-5.984-2.595
		c-3,0.476-5.95,0.057-8.908-0.16c-2.419-0.175-4.824-0.531-7.229-0.812c-0.293-0.035-0.594-0.077-0.874-0.175
		c-0.405-0.14-0.943-0.195-0.943-0.775c0-0.476,0.461-0.657,0.797-0.79c3.671-1.413,7.397-2.58,11.403-2.385
		c0.301,0.014,0.595,0.042,0.896,0.042c0.14,0,0.272-0.056,0.706-0.161c-1.734-1.3-3.224-2.74-5.125-3.153
		c-3.664-0.775-6.433-2.755-8.726-5.551C96.061,7.9,94.83,6.53,93.872,4.95c-0.21-0.343-0.398-0.713-0.175-1.118
		c0.119-0.21,0.287-0.294,0.476-0.309h0.111c0.112,0.008,0.231,0.035,0.336,0.077c2.811,0.958,5.838,1.237,8.509,2.629
		c2.832,1.469,5.182,3.35,5.797,6.72c0.111,0.601,0.496,0.979,0.979,1.251c1.335,0.755,2.685,1.482,4.153,2.133
		c-0.902-1.748-1.846-3.44-2.314-5.328c-0.35-1.391-0.706-2.782-1.063-4.174c-0.098-0.405-0.154-0.804,0.23-1.084
		c0.378-0.272,0.77-0.098,1.119,0.099c4.355,2.475,8.089,5.614,10.474,10.096c0.95,1.79,0.468,3.804,0.37,5.719
		c-0.027,0.518-0.161,0.951,0.272,1.35c1.588,1.489,3.168,2.979,5.021,4.727c-0.462-1.748-0.706-3.216-0.965-4.67
		c-0.524-2.965,0.084-5.965-0.462-8.915c-0.084-0.44,0.057-0.937,0.511-1.14c0.378-0.168,0.664,0.154,0.881,0.42
		c2.65,3.265,5.705,6.271,7.062,10.403c0.958,2.93,1.161,5.908,0.378,8.936c-0.266,1.021-0.637,1.741-2.098,1.461
		c1.985,2.671,3.545,5.286,5.139,7.985c0.427-0.637,0.14-1.098,0.098-1.566c-0.398-4.538,0.231-8.9,2.301-12.998
		c0.21-0.426,0.427-0.965,1.049-0.916c0.398,0.028,0.573,0.378,0.686,0.707c1.545,4.601,3.523,9.159,3.412,14.074
		c-0.077,3.013-0.79,6.124-3.447,8.222c-0.581,0.455-0.23,0.889-0.063,1.321c1.021,2.566,1.902,5.175,2.637,7.895
		c-0.105-5.685,3.594-9.719,6.068-14.264c0.23-0.419,0.469-1.042,1.028-0.951c0.643,0.099,0.468,0.818,0.51,1.252
		c0.553,5.328,1.133,10.69-0.168,15.983c-0.72,2.915-2.181,5.446-5.201,6.628c-0.615,0.238-0.749,0.664-0.637,1.168
		c0.573,2.58,0.602,5.194,0.686,7.858c2.391-4.439,5.866-7.936,9.403-11.376c0.252-0.244,0.504-0.482,0.763-0.713
		c0.377-0.335,0.775-0.727,1.308-0.35c0.426,0.308,0.37,0.812,0.23,1.237c-1.063,3.363-1.321,6.901-2.279,10.292
		c-1.454,5.182-4.182,9.3-9.334,11.433c-0.734,0.308-0.902,0.895-1.028,1.517c-0.468,2.356-0.727,4.762-1.454,7.342
		c3.859-4.14,8.517-6.72,12.991-9.551c0.476-0.308,1.049-0.874,1.594-0.363c0.168,0.153,0.23,0.321,0.237,0.489v0.014
		c0,0.37-0.293,0.762-0.447,1.126c-1.524,3.621-3.342,7.097-5.258,10.516c-2.58,4.601-6.621,7.306-11.669,8.537
		c-1,0.244-1.51,0.691-1.93,1.559c-1.126,2.301-2.328,4.552-3.538,6.894c0.797,0.021,1.168-0.517,1.615-0.853
		c4.545-3.384,9.865-4.775,15.242-6.041c0.377-0.084,0.846-0.217,1.076,0.224c0.273,0.504-0.125,0.846-0.468,1.133
		c-1.434,1.188-2.496,2.685-3.531,4.202c-2.419,3.573-5.663,6.251-9.376,8.355c-3.111,1.762-6.523,2.321-10.068,1.908
		c-0.468-0.049-0.888-0.168-1.216,0.245c-1.916,2.35-4.111,4.426-6.573,6.789c1.797-0.259,3.098-0.923,4.476-1.266
		c3.636-0.916,7.349-1.056,11.04-1.392c1.23-0.111,2.454-0.434,3.705-0.294c0.504,0.063,1.042,0.112,1.23,0.657
		c0.203,0.581-0.258,0.951-0.657,1.217c-4.691,3.14-9.152,6.705-14.773,8.167c-3.153,0.817-6.313,1.321-9.537,0.293
		c-0.622-0.202-1.439-0.314-1.713-0.804c-0.804-1.434-1.503-0.664-2.349-0.126c-2.671,1.72-5.481,3.195-8.32,4.538
		c-0.007,0.392,0.245,0.363,0.405,0.328c3.629-0.832,7.209-0.112,10.774,0.405c2.937,0.427,5.838,1.077,8.754,1.664
		c0.545,0.112,1.328,0.119,1.342,0.902c0.008,0.657-0.678,0.755-1.195,0.93c-5.453,1.895-10.941,3.565-16.829,3.188
		c-3.824-0.245-7.313-1.301-10.138-4.021c-0.413-0.392-0.867-0.58-1.343-0.385c-2.167,0.882-4.523,1.077-7.068,1.867
		c1.937,0.692,3.643,1.146,5.209,1.895c3.978,1.902,7.894,3.93,11.829,5.915c0.434,0.217,1.008,0.448,0.875,1.056
		c-0.099,0.44-0.42,0.539-0.756,0.546h-0.056c-0.146,0-0.301-0.021-0.434-0.035c-6.139-0.657-12.41-0.427-18.263-2.93
		c-2.266-0.972-4.342-2.146-6.013-4.006c-1.916-2.14-5.496-2.168-7.404-0.091c-2.594,2.824-5.93,4.278-9.544,5.188
		c-4.342,1.084-8.789,1.489-13.242,1.783c-0.343,0.021-0.692,0.021-1.042,0c-0.538-0.042-1.224,0.007-1.405-0.595
		c-0.203-0.678,0.511-0.916,0.965-1.133c5.188-2.475,10.152-5.433,15.599-7.369C68.059,147.269,68.114,147.178,68.254,147.045
		L68.254,147.045z M89.754,66.988c0,0,0.546,4.747,0.154,6.209c-0.371,1.356-2.531,1.881-3.699,1.104l-0.629-0.42
		c-1.524,1.699-3.084,2.671-4.65,2.895v1.042h-1.314v-1.021c-2.048-0.245-3.614-1.706-4.551-2.839l-0.518,0.343
		c-1.168,0.776-3.321,0.252-3.691-1.104c-0.392-1.462,0.153-6.209,0.153-6.209s4.629,1.286,5.838,2.209
		c1.112,0.854,0.77,3.049-0.398,3.832l-0.755,0.504c0.846,1.006,2.217,2.265,3.922,2.51v-6.37h-0.489
		c-1.398,0-2.901-1.636-2.454-2.964c0.482-1.44,3.573-5.091,3.573-5.091s3.14,3.644,3.629,5.091
		c0.454,1.328-1.056,2.964-2.454,2.964h-0.49v6.349c1.336-0.224,2.686-1.084,4.028-2.559l-0.644-0.434
		c-1.168-0.783-1.511-2.979-0.398-3.832C85.125,68.274,89.754,66.988,89.754,66.988L89.754,66.988z M92.222,52.983h0.86v1.021
		c0,0.328,0.014,0.545,0.042,0.657c0.021,0.104,0.091,0.202,0.217,0.279c0.119,0.084,0.294,0.119,0.531,0.119
		c0.182,0,0.35-0.014,0.489-0.056c0.147-0.042,0.273-0.099,0.378-0.175v-1.847h0.859v4.279h-0.859v-1.72
		c-0.175,0.077-0.35,0.133-0.518,0.175c-0.168,0.035-0.335,0.056-0.503,0.056c-0.42,0-0.783-0.098-1.07-0.301
		c-0.286-0.202-0.427-0.552-0.427-1.049V52.983z M85.874,57.263v-4.279h3.174v0.721H86.74v0.951h2.146v0.72H86.74v1.168h2.392v0.72
		H85.874z M79.993,55.396v1.146h0.805c0.308,0,0.503-0.015,0.587-0.028c0.133-0.021,0.238-0.084,0.314-0.175
		c0.084-0.084,0.126-0.21,0.126-0.363c0-0.126-0.035-0.231-0.098-0.322s-0.153-0.16-0.266-0.195
		c-0.119-0.042-0.378-0.063-0.77-0.063H79.993z M79.993,53.69v0.992h0.566c0.336,0,0.546-0.007,0.63-0.014
		c0.146-0.021,0.266-0.07,0.35-0.154s0.126-0.195,0.126-0.335c0-0.133-0.035-0.238-0.112-0.322c-0.07-0.084-0.182-0.133-0.321-0.146
		c-0.091-0.014-0.336-0.021-0.742-0.021H79.993z M79.133,52.983h1.706c0.343,0,0.595,0.015,0.763,0.042
		c0.161,0.028,0.314,0.084,0.44,0.175c0.133,0.091,0.245,0.21,0.336,0.357c0.084,0.146,0.126,0.314,0.126,0.503
		c0,0.195-0.057,0.385-0.161,0.553c-0.104,0.167-0.252,0.286-0.44,0.37c0.266,0.077,0.462,0.21,0.602,0.392s0.209,0.398,0.209,0.644
		c0,0.195-0.041,0.384-0.133,0.573c-0.091,0.182-0.216,0.328-0.37,0.44c-0.161,0.104-0.35,0.175-0.58,0.202
		c-0.147,0.015-0.489,0.021-1.042,0.028h-1.455V52.983z M72.764,55.116c0,0.489,0.112,0.854,0.336,1.104
		c0.224,0.252,0.503,0.378,0.853,0.378c0.343,0,0.622-0.126,0.847-0.378c0.224-0.244,0.335-0.615,0.335-1.111
		s-0.111-0.86-0.328-1.098c-0.21-0.245-0.497-0.363-0.854-0.363s-0.643,0.118-0.859,0.363
		C72.868,54.256,72.764,54.627,72.764,55.116L72.764,55.116z M71.869,55.145c0-0.434,0.069-0.797,0.195-1.098
		c0.098-0.217,0.23-0.413,0.398-0.581c0.168-0.175,0.356-0.308,0.553-0.391c0.272-0.112,0.58-0.168,0.923-0.168
		c0.636,0,1.14,0.195,1.517,0.587c0.378,0.392,0.567,0.937,0.567,1.636c0,0.686-0.189,1.231-0.56,1.622
		c-0.378,0.385-0.881,0.581-1.511,0.581c-0.636,0-1.14-0.196-1.517-0.581C72.058,56.361,71.869,55.829,71.869,55.145L71.869,55.145z
		 M67.059,53.977l-1.195,3.286H64.94l1.671-4.279h0.916l1.713,4.279h-0.944L67.059,53.977z M91.732,115.204
		c-2.006,0-3.021-0.259-4.006-0.504c-0.902-0.23-1.755-0.447-3.503-0.447c-1.755,0-2.608,0.217-3.511,0.447
		c-0.985,0.245-1.999,0.504-4.006,0.504s-3.027-0.259-4.014-0.504c-0.901-0.23-1.755-0.447-3.502-0.447
		c-0.566,0-1.028-0.461-1.028-1.027s0.462-1.021,1.028-1.021c2.006,0,3.027,0.259,4.006,0.504c0.902,0.23,1.755,0.447,3.51,0.447
		c1.748,0,2.601-0.217,3.503-0.447c0.986-0.245,2.007-0.504,4.014-0.504s3.021,0.259,4.006,0.504
		c0.902,0.23,1.755,0.447,3.503,0.447c0.566,0,1.028,0.462,1.028,1.027C92.761,114.75,92.299,115.204,91.732,115.204L91.732,115.204
		z M91.732,110.331c-2.999,0-4.517-0.518-5.984-1.015c-1.356-0.461-2.644-0.895-5.286-0.895c-2.636,0-3.923,0.434-5.286,0.895
		c-1.468,0.497-2.985,1.015-5.984,1.015c-2.993,0-4.51-0.518-5.979-1.015c-1.363-0.461-2.649-0.895-5.293-0.895
		c-0.594,0-1.076-0.482-1.076-1.084c0-0.594,0.482-1.076,1.076-1.076c3,0,4.517,0.518,5.985,1.014
		c1.363,0.461,2.649,0.895,5.286,0.895c2.643,0,3.929-0.434,5.285-0.895c1.469-0.496,2.993-1.014,5.985-1.014
		s4.517,0.518,5.985,1.014c1.355,0.461,2.643,0.895,5.285,0.895c2.637,0,3.923-0.434,5.286-0.895
		c1.468-0.496,2.985-1.014,5.985-1.014c0.594,0,1.076,0.482,1.076,1.076c0,0.602-0.482,1.084-1.076,1.084
		c-2.644,0-3.93,0.434-5.286,0.895C96.242,109.813,94.726,110.331,91.732,110.331L91.732,110.331z M91.732,105.22
		c-2.999,0-4.517-0.518-5.984-1.014c-1.356-0.462-2.644-0.902-5.286-0.902c-2.636,0-3.923,0.44-5.286,0.902
		c-1.468,0.496-2.985,1.014-5.984,1.014c-2.993,0-4.51-0.518-5.979-1.014c-1.363-0.462-2.649-0.902-5.293-0.902
		c-0.594,0-1.076-0.482-1.076-1.076c0-0.595,0.482-1.077,1.076-1.077c3,0,4.517,0.511,5.985,1.007
		c1.363,0.469,2.649,0.902,5.286,0.902c2.643,0,3.929-0.434,5.285-0.902c1.469-0.496,2.993-1.007,5.985-1.007
		s4.517,0.511,5.985,1.007c1.355,0.469,2.643,0.902,5.285,0.902c2.637,0,3.923-0.434,5.286-0.902
		c1.468-0.496,2.985-1.007,5.985-1.007c0.594,0,1.076,0.482,1.076,1.077c0,0.594-0.482,1.076-1.076,1.076
		c-2.644,0-3.93,0.44-5.286,0.902C96.242,104.702,94.726,105.22,91.732,105.22L91.732,105.22z M101.696,111.854
		c6.349-3.929,5.705-9.452,5.698-9.509v-9.571h-7.495v5.796h-5.957v-5.796H83.392v5.796h-5.957v-5.796H67.38v5.796h-5.957v-5.796
		h-8.055v9.516l-0.007,0.056c-0.027,0.224-0.602,5.607,5.705,9.509l21.29,9.502L101.696,111.854z M56.899,89.174V85.72h-1.846v3.454
		H56.899z M65.171,89.174V85.72h-1.846v3.454H65.171z M73.484,89.174V85.72h-1.839v3.454H73.484z M82.77,85.72l-2.119-1.595
		l-2.118,1.595v3.454h4.237V85.72z M89.278,89.174V85.72h-1.846v3.454H89.278z M97.55,89.174V85.72h-1.846v3.454H97.55z
		 M105.863,89.174V85.72h-1.839v3.454H105.863z M107.395,78.847c0-6.209,0-12.425,0-18.634H53.376v18.634H107.395z M109.072,102.192
		c0.455,4.404-2.888,9.194-6.643,11.18l-22.073,9.823l-22.122-9.879c-7.026-4.314-6.621-10.404-6.544-11.124V58.535h57.382V102.192z
		 M104.934,115.567c7.537-4.404,6.949-11.585,6.949-11.585V39.839H96.089v11.068h-7.915V39.839H72.589v11.068h-7.915V39.839H48.88
		v64.144c0,0-0.58,7.181,6.95,11.585c5.782,3.392,24.526,10.816,24.526,10.816S99.137,118.959,104.934,115.567L104.934,115.567z
		 M53.368,82.028v0.713h54.019v-0.713H53.368z"/>
</g>
</svg>
