<?xml version="1.0" encoding="utf-8"?>
<!-- Generator: Adobe Illustrator 27.0.1, SVG Export Plug-In . SVG Version: 6.00 Build 0)  -->
<svg version="1.1" id="Layer_1" xmlns="http://www.w3.org/2000/svg" xmlns:xlink="http://www.w3.org/1999/xlink" x="0px" y="0px"
	 viewBox="0 0 850.39 1133.86" style="enable-background:new 0 0 850.39 1133.86;" xml:space="preserve">
<style type="text/css">
	.st0{fill:#CDA432;}
	.st1{fill:#95268F;}
	.st2{fill-rule:evenodd;clip-rule:evenodd;fill:#CDA432;}
</style>
<g>
	<path class="st0" d="M427.34,1118.43c-1.25,0-2.5,0-3.75,0c-1.46-0.78-2.89-1.63-4.39-2.33
		c-79.97-37.53-159.93-75.07-239.93-112.54c-28.1-13.16-55.91-26.77-80.04-46.73c-41.88-34.64-66.41-78.69-72.08-132.93
		c-1.01-9.7-1.52-19.45-2.26-29.18c0-259.55,0-519.1,0-778.65c66.66,0,133.32,0,199.97,0c0,49.86,0,99.72,0,149.57
		c33.74,0,66.7,0,99.99,0c0-50.15,0-99.86,0-149.57c66.66,0,133.32,0,199.97,0c0,49.86,0,99.72,0,149.57c33.74,0,66.7,0,99.99,0
		c0-50.15,0-99.86,0-149.57c67.07,0,134.15,0,201.22,0c0,265.38,0,530.77,0,796.15c-0.36,2.02-0.9,4.02-1.07,6.06
		c-2.83,35.4-13.62,67.99-34.54,96.89c-25.68,35.48-60.04,60.45-99.03,79.08c-63.98,30.56-128.36,60.29-192.55,90.41
		C475,1095.85,451.18,1107.17,427.34,1118.43z M72.38,254.07c0,20.14,0,39.5,0,58.85c0,125.16-0.1,250.33,0.07,375.49
		c0.05,39.15,0.53,78.3,1.43,117.44c0.72,31.2,10.76,59.56,28.86,84.95c21.42,30.05,50.78,50.2,83.9,65
		c77.04,34.42,154.33,68.27,231.42,102.58c5.72,2.55,10.36,2.23,15.87-0.2c60.64-26.79,121.42-53.26,182.03-80.1
		c27.73-12.28,55.99-23.47,81.65-40.06c52.59-34,81.74-80.99,81.76-144.69c0.04-177.64,0.21-355.29,0.31-532.93
		c0-2.02-0.19-4.03-0.3-6.33C543.71,254.07,308.49,254.07,72.38,254.07z"/>
	<path class="st1" d="M72.38,254.07c236.11,0,471.33,0,707,0c0.11,2.3,0.3,4.31,0.3,6.33c-0.1,177.64-0.27,355.29-0.31,532.93
		c-0.01,63.71-29.16,110.7-81.76,144.69c-25.67,16.59-53.93,27.78-81.65,40.06c-60.61,26.84-121.39,53.31-182.03,80.1
		c-5.51,2.43-10.15,2.75-15.87,0.2c-77.09-34.31-154.38-68.16-231.42-102.58c-33.12-14.8-62.47-34.94-83.9-65
		c-18.11-25.4-28.15-53.75-28.86-84.95c-0.9-39.14-1.37-78.29-1.43-117.44c-0.17-125.16-0.07-250.33-0.07-375.49
		C72.38,293.57,72.38,274.21,72.38,254.07z M580.82,758.2c0-23.45,0-46.44,0-69.37c-37.68,0-74.66,0-112.34,0
		c0,23.3,0,46.29,0,69.18c-27.42,0-54.15,0-81.34,0c0-23.3,0-46.13,0-69.1c-37.61,0-74.74,0-112.56,0c0,23.4,0,46.38,0,69.23
		c-27.27,0-53.85,0-81.12,0c0-23.31,0-46.3,0-69.34c-34.34,0-67.99,0-102.02,0c-0.1,1.26-0.25,2.25-0.24,3.24
		c0.47,38.52,0.49,77.06,1.57,115.56c0.88,31.48,13,58.89,33.41,82.72c18.4,21.48,41.54,36.53,67.01,47.9
		c74.54,33.27,149.34,65.97,223.88,99.24c6.57,2.93,11.61,2.66,17.96-0.16c52.39-23.26,105.04-45.95,157.4-69.29
		c28.45-12.68,56.91-25.46,84.6-39.69c24.14-12.41,44.37-30.18,60.05-52.6c18.01-25.74,23.46-54.99,23.49-85.74
		c0.03-32.07,0.28-64.14,0.42-96.21c0.01-1.6-0.2-3.2-0.31-4.81c-32.96,0-65.51,0-98.53,0c0,23.29,0,46.12,0,69.24
		C635.11,758.2,608.53,758.2,580.82,758.2z M91.45,505.51c223.39,0,446.34,0,669.08,0c0-77.85,0-155.22,0-232.6
		c-223.26,0-446.03,0-669.08,0C91.45,350.57,91.45,427.8,91.45,505.51z M91.46,560.54c223.45,0,446.33,0,669.25,0
		c0-5.77,0-11.1,0-16.69c-223.19,0-446.08,0-669.25,0C91.46,549.5,91.46,554.82,91.46,560.54z"/>
	<path class="st0" d="M580.82,758.2c27.71,0,54.29,0,81.34,0c0-23.11,0-45.94,0-69.24c33.02,0,65.56,0,98.53,0
		c0.11,1.61,0.31,3.21,0.31,4.81c-0.13,32.07-0.38,64.14-0.42,96.21c-0.03,30.75-5.49,59.99-23.49,85.74
		c-15.69,22.43-35.92,40.2-60.05,52.6c-27.69,14.23-56.15,27.01-84.6,39.69c-52.36,23.33-105,46.03-157.4,69.29
		c-6.36,2.82-11.39,3.09-17.96,0.16c-74.54-33.27-149.34-65.97-223.88-99.24c-25.47-11.37-48.61-26.42-67.01-47.9
		c-20.42-23.83-32.53-51.23-33.41-82.72c-1.08-38.5-1.1-77.04-1.57-115.56c-0.01-0.99,0.14-1.98,0.24-3.24c34.03,0,67.68,0,102.02,0
		c0,23.05,0,46.03,0,69.34c27.27,0,53.85,0,81.12,0c0-22.85,0-45.83,0-69.23c37.82,0,74.96,0,112.56,0c0,22.96,0,45.79,0,69.1
		c27.19,0,53.92,0,81.34,0c0-22.9,0-45.88,0-69.18c37.68,0,74.66,0,112.34,0C580.82,711.77,580.82,734.75,580.82,758.2z"/>
	<path class="st0" d="M91.45,505.51c0-77.72,0-154.95,0-232.6c223.05,0,445.82,0,669.08,0c0,77.38,0,154.76,0,232.6
		C537.79,505.51,314.84,505.51,91.45,505.51z"/>
	<path class="st0" d="M91.46,560.54c0-5.72,0-11.04,0-16.69c223.17,0,446.06,0,669.25,0c0,5.6,0,10.92,0,16.69
		C537.79,560.54,314.91,560.54,91.46,560.54z"/>
	<path class="st1" d="M297.54,350.89c18.58,1.81,37.01,3.52,55.41,5.43c15.83,1.65,27.71,11.71,31.33,26.22
		c3.52,14.08-2.19,28.58-14.73,37.63c-1.13,0.81-2.11,1.93-2.91,3.08c-8.44,12.01-23.31,17.8-37.23,14.42
		c-14.31-3.47-24.69-15.34-26.31-30.55C301.12,388.51,299.41,369.88,297.54,350.89z"/>
	<path class="st1" d="M560.9,350.89c-18.58,1.81-37.01,3.52-55.41,5.43c-15.83,1.65-27.71,11.71-31.33,26.22
		c-3.52,14.08,2.19,28.58,14.73,37.63c1.13,0.81,2.11,1.93,2.91,3.08c8.44,12.01,23.31,17.8,37.23,14.42
		c14.31-3.47,24.69-15.34,26.31-30.55C557.32,388.51,559.04,369.88,560.9,350.89z"/>
	<rect x="420.44" y="376.2" class="st1" width="17.56" height="120.59"/>
	
		<rect x="376.53" y="378.33" transform="matrix(0.7071 -0.7071 0.7071 0.7071 -197.2979 400.9265)" class="st1" width="17.56" height="120.59"/>
	
		<rect x="464.35" y="378.33" transform="matrix(-0.7071 -0.7071 0.7071 -0.7071 497.5342 1083.3312)" class="st1" width="17.56" height="120.59"/>
	<g>
		<path class="st1" d="M290.51,235.05v0.23h-9.45l-13.65-29.85c-0.97-2.18-1.8-4.42-2.32-6.67c-0.6,2.25-1.42,4.42-2.4,6.6
			l-13.65,29.92h-9.45v-0.15l24.15-51.15h2.7L290.51,235.05z"/>
		<path class="st1" d="M327.04,209.71c0-15.3,10.95-26.4,26.55-26.4c15.75,0,26.55,11.1,26.55,26.4c0,14.92-10.8,26.55-26.55,26.55
			C337.99,236.25,327.04,224.63,327.04,209.71z M371.13,209.71c0-10.57-6.82-18.37-17.55-18.37c-10.65,0-17.47,7.8-17.47,18.37
			c0,10.27,6.82,18.52,17.47,18.52C364.31,228.23,371.13,219.98,371.13,209.71z"/>
		<path class="st1" d="M462.03,221.18c0,8.47-6.6,14.1-15.97,14.1h-21.75v-51h20.32c8.92,0,15.37,5.4,15.37,13.35
			c0,4.88-2.4,8.62-6.08,10.95C458.81,210.76,462.03,215.33,462.03,221.18z M433.09,205.43h10.2c5.03,0,7.8-2.62,7.8-7.12
			c0-4.2-3.22-6.75-7.95-6.75h-10.05V205.43z M453.11,220.28c0-4.65-3.3-7.65-8.17-7.65h-11.85V228h11.55
			C449.66,228,453.11,225.08,453.11,220.28z"/>
		<path class="st1" d="M538.76,227.48v7.8h-32.77v-51h32.1v7.8h-23.25v13.5h20.32v7.57h-20.32v14.32H538.76z"/>
		<path class="st1" d="M618.86,184.28v51h-8.85v-19.27c-3.67,1.27-7.8,1.95-11.85,1.95c-10.88,0-18.07-5.17-18.07-16.87v-16.8h8.85
			v15.9c0,7.27,3.75,9.75,10.2,9.75c3.75,0,7.58-0.9,10.88-2.4v-23.25H618.86z"/>
	</g>
	<path class="st1" d="M429.21,285.19c11.86,14.42,23.68,28.66,35.34,43.02c10.03,12.36,11.31,27.87,3.62,40.69
		c-7.47,12.45-21.76,18.66-37.03,16.19c-1.37-0.22-2.86-0.13-4.24,0.12c-14.46,2.53-29.07-3.9-36.52-16.13
		c-7.66-12.57-6.62-28.31,3-40.21C405.13,314.32,417.1,299.93,429.21,285.19z"/>
</g>
<g>
	<path class="st1" d="M131.13,814.28c0-4.17,0-8.33,0-12.5c4.58,0,9.17,0,13.75,0c0.98,0.33,1.94,0.91,2.93,0.96
		c23.41,1.17,44.37,9.84,64.72,20.7c44.82,23.94,89.63,23.59,134.8,0.29c13.57-7,28.04-12.44,42.5-17.45
		c7.91-2.74,16.65-3.08,25.01-4.51c9.17,0,18.33,0,27.5,0c0.95,0.36,1.88,0.99,2.85,1.05c21.85,1.28,41.66,8.87,60.78,19
		c8.79,4.66,17.74,9.49,27.18,12.37c36.93,11.24,72.83,8.99,107.68-8.85c14.52-7.43,29.86-13.46,45.24-18.98
		c7.86-2.83,16.63-3.14,24.98-4.58c5.42,0,10.83,0,16.25,0c0,4.17,0,8.33,0,12.5c-23.9-1.43-45.91,4.63-67.21,15.31
		c-14.59,7.32-29.87,13.42-45.26,18.92c-7.87,2.81-16.65,3.09-25.01,4.52c-9.17,0-18.33,0-27.5,0c-0.95-0.36-1.88-0.99-2.85-1.05
		c-21.85-1.28-41.66-8.87-60.78-19c-8.79-4.66-17.73-9.5-27.18-12.37c-36.93-11.24-72.83-8.99-107.68,8.85
		c-14.52,7.43-29.86,13.46-45.24,18.98c-7.86,2.83-16.63,3.14-24.98,4.58c-9.17,0-18.33,0-27.5,0c-8.35-1.47-17.14-1.74-24.95-4.66
		c-16.87-6.29-33.46-13.45-49.74-21.15C172.24,818.14,152.39,813.21,131.13,814.28z"/>
</g>
<g>
	<path class="st1" d="M131.13,865.52c0-4.17,0-8.33,0-12.5c4.58,0,9.17,0,13.75,0c0.98,0.33,1.94,0.91,2.93,0.96
		c23.41,1.17,44.37,9.84,64.72,20.7c44.82,23.94,89.63,23.59,134.8,0.29c13.57-7,28.04-12.44,42.5-17.45
		c7.91-2.74,16.65-3.08,25.01-4.51c9.17,0,18.33,0,27.5,0c0.95,0.36,1.88,0.99,2.85,1.05c21.85,1.28,41.66,8.87,60.78,19
		c8.79,4.66,17.74,9.49,27.18,12.37c36.93,11.24,72.83,8.99,107.68-8.85c14.52-7.43,29.86-13.46,45.24-18.98
		c7.86-2.83,16.63-3.14,24.98-4.58c5.42,0,10.83,0,16.25,0c0,4.17,0,8.33,0,12.5c-23.9-1.43-45.91,4.63-67.21,15.31
		c-14.59,7.32-29.87,13.42-45.26,18.92c-7.87,2.81-16.65,3.09-25.01,4.52c-9.17,0-18.33,0-27.5,0c-0.95-0.36-1.88-0.99-2.85-1.05
		c-21.85-1.28-41.66-8.87-60.78-19c-8.79-4.66-17.73-9.5-27.18-12.37c-36.93-11.24-72.83-8.99-107.68,8.85
		c-14.52,7.43-29.86,13.46-45.24,18.98c-7.86,2.83-16.63,3.14-24.98,4.58c-9.17,0-18.33,0-27.5,0c-8.35-1.47-17.14-1.74-24.95-4.66
		c-16.87-6.29-33.46-13.45-49.74-21.15C172.24,869.38,152.39,864.46,131.13,865.52z"/>
</g>
<g>
	<path class="st1" d="M563.69,955.51c-8.13-1.44-16.66-1.78-24.31-4.54c-15.37-5.55-30.73-11.51-45.26-18.95
		c-34.85-17.84-70.75-20.28-107.68-8.94c-10.22,3.14-19.84,8.49-29.4,13.46c-18.45,9.59-37.59,16.64-58.55,17.9
		c-1.19,0.07-2.35,0.7-3.52,1.07c-5,0-10,0-15,0c0-4.17,0-8.33,0-12.5c23.48,1.32,45.05-4.88,65.96-15.31
		c14.61-7.29,29.88-13.42,45.26-18.92c7.87-2.81,16.65-3.09,25.01-4.52c9.17,0,18.33,0,27.5,0c3.85,0.64,7.68,1.38,11.54,1.89
		c20.15,2.62,38.4,10.47,55.9,20.31c23.36,13.14,48.4,18.41,75.04,16.55c0,4.17,0,8.33,0,12.5
		C578.69,955.51,571.19,955.51,563.69,955.51z"/>
</g>
<path class="st2" d="M709.78,655.13v-50h36.38v50H709.78z M608.66,605.13h38.62v50h-38.62V605.13z M509.78,605.13h36.38v50h-36.38
	V605.13z M404.78,605.13l25-26.38l23.88,26.38v50h-48.88V605.13z M311.16,605.13h37.5v50h-37.5V605.13z M211.16,605.13h38.62v50
	h-38.62V605.13z M112.28,605.13h36.38v50h-36.38V605.13z"/>
</svg>
